<svg width="205" height="200" viewBox="0 0 205 200" fill="none" xmlns="http://www.w3.org/2000/svg">
<rect x="79.8155" y="172.594" width="13.1654" height="6.58272" rx="3.29136" fill="#FF4500"/>
<rect x="95.4495" y="172.594" width="13.1654" height="6.58272" rx="3.29136" fill="#FF4500"/>
<rect x="111.083" y="172.594" width="13.1654" height="6.58272" rx="3.29136" fill="#FF4500"/>
<path d="M101.803 101.623L51.7649 42.5102L101.208 24.1778L101.803 101.623Z" fill="#023618"/>
<path d="M103.615 103.187L153.274 43.756L179.811 89.3243L103.615 103.187Z" fill="#023618"/>
<path d="M103.146 102.348L102.33 24.9049L152.099 42.3338L103.146 102.348Z" fill="#FF4500"/>
<path d="M101.05 103.127L24.8061 89.528L51.1854 43.8679L101.05 103.127Z" fill="#FF4500"/>
<path d="M100.877 104.671L33.6539 143.131L24.6137 91.1792L100.877 104.671Z" fill="#023618"/>
<path d="M103.137 104.671L179.4 91.1775L170.361 143.129L103.137 104.671Z" fill="#FF4500"/>
<path d="M101.025 105.621L74.8671 178.517L34.2617 144.873L101.025 105.621Z" fill="#FF4500"/>
<path d="M103.26 105.619L170.021 144.876L129.414 178.517L103.26 105.619Z" fill="#023618"/>
</svg>
