<svg width="316" height="116" viewBox="0 0 316 116" fill="none" xmlns="http://www.w3.org/2000/svg">
<path d="M1.5 58C1.5 26.7959 26.7959 1.5 58 1.5H314.5V114.5H58C26.7959 114.5 1.5 89.2041 1.5 58Z" stroke="#023618" stroke-width="3"/>
<circle cx="57.5" cy="58.5" r="56" stroke="#023618" stroke-width="3"/>
<path d="M149.84 47.48C146.8 47.48 144.16 46.92 141.92 45.8C139.68 44.6533 137.96 43.1067 136.76 41.16C135.56 39.2133 134.96 37.0533 134.96 34.68C134.96 32.1467 135.627 29.88 136.96 27.88C138.32 25.88 140.187 24.3333 142.56 23.24C144.933 22.12 147.6 21.56 150.56 21.56C151.84 21.56 153.12 21.6667 154.4 21.88C155.68 22.0667 156.707 22.32 157.48 22.64C157.773 22.7467 157.933 22.84 157.96 22.92C158.013 22.9733 158.053 23.1867 158.08 23.56L158.6 29.12C158.6 29.2 158.52 29.2533 158.36 29.28C158.227 29.3067 158.147 29.2667 158.12 29.16C157.773 28.28 157.213 27.32 156.44 26.28C155.667 25.24 154.653 24.3333 153.4 23.56C152.147 22.7867 150.693 22.4 149.04 22.4C147.333 22.4 145.773 22.8667 144.36 23.8C142.947 24.7333 141.827 26.0667 141 27.8C140.2 29.5333 139.8 31.5467 139.8 33.84C139.8 36.3467 140.267 38.5867 141.2 40.56C142.16 42.5333 143.48 44.0667 145.16 45.16C146.84 46.2533 148.733 46.8 150.84 46.8C151.933 46.8 152.773 46.68 153.36 46.44C153.947 46.2 154.373 45.7333 154.64 45.04C154.907 44.3467 155.04 43.32 155.04 41.96C155.04 40.5733 154.96 39.6133 154.8 39.08C154.64 38.52 154.293 38.1467 153.76 37.96C153.253 37.7733 152.347 37.68 151.04 37.68C150.88 37.68 150.8 37.5733 150.8 37.36C150.8 37.28 150.813 37.2133 150.84 37.16C150.893 37.08 150.947 37.04 151 37.04C153.267 37.1733 155.107 37.24 156.52 37.24C157.88 37.24 159.293 37.2 160.76 37.12C160.867 37.12 160.92 37.2133 160.92 37.4C160.947 37.5867 160.893 37.68 160.76 37.68C160.28 37.6533 159.933 37.7467 159.72 37.96C159.533 38.1467 159.413 38.5467 159.36 39.16C159.307 39.7733 159.28 40.84 159.28 42.36C159.28 43.56 159.32 44.4133 159.4 44.92C159.507 45.4267 159.56 45.7467 159.56 45.88C159.56 46.04 159.533 46.1467 159.48 46.2C159.427 46.2533 159.307 46.3067 159.12 46.36C155.68 47.1067 152.587 47.48 149.84 47.48ZM177.778 44.36C177.831 44.36 177.884 44.4133 177.938 44.52C178.018 44.6267 178.031 44.7067 177.978 44.76C176.991 45.72 175.991 46.4133 174.978 46.84C173.964 47.2667 172.858 47.48 171.658 47.48C169.978 47.48 168.524 47.1333 167.298 46.44C166.071 45.72 165.138 44.7733 164.498 43.6C163.858 42.4 163.538 41.1067 163.538 39.72C163.538 38.1733 163.924 36.7467 164.698 35.44C165.471 34.1333 166.538 33.1067 167.898 32.36C169.284 31.5867 170.844 31.2 172.578 31.2C174.231 31.2 175.511 31.5733 176.418 32.32C177.324 33.0667 177.778 34.2267 177.778 35.8C177.778 36.6267 177.631 37.04 177.338 37.04L167.618 37.08C167.591 37.2667 167.578 37.5733 167.578 38C167.578 40.3467 168.111 42.1867 169.178 43.52C170.271 44.8533 171.831 45.52 173.858 45.52C174.578 45.52 175.191 45.44 175.698 45.28C176.204 45.12 176.871 44.8267 177.698 44.4L177.778 44.36ZM171.058 32C170.178 32 169.444 32.3867 168.858 33.16C168.271 33.9067 167.884 34.9467 167.698 36.28L173.498 36.2C173.471 34.84 173.271 33.8 172.898 33.08C172.524 32.36 171.911 32 171.058 32ZM188.222 47.52C186.569 47.52 185.116 47.1467 183.862 46.4C182.636 45.6267 181.689 44.6 181.022 43.32C180.356 42.0133 180.022 40.6 180.022 39.08C180.022 37.3467 180.462 35.88 181.342 34.68C182.222 33.4533 183.342 32.5467 184.702 31.96C186.062 31.3467 187.462 31.04 188.902 31.04C190.556 31.04 191.996 31.4267 193.222 32.2C194.449 32.9733 195.382 34 196.022 35.28C196.689 36.5333 197.022 37.88 197.022 39.32C197.022 40.92 196.622 42.3467 195.822 43.6C195.022 44.8267 193.942 45.7867 192.582 46.48C191.249 47.1733 189.796 47.52 188.222 47.52ZM189.422 46.68C190.462 46.68 191.249 46.1733 191.782 45.16C192.342 44.12 192.622 42.64 192.622 40.72C192.622 38.8533 192.382 37.2533 191.902 35.92C191.422 34.5867 190.796 33.5867 190.022 32.92C189.249 32.2267 188.422 31.88 187.542 31.88C185.409 31.88 184.342 33.7867 184.342 37.6C184.342 39.3867 184.569 40.9733 185.022 42.36C185.476 43.72 186.089 44.7867 186.862 45.56C187.636 46.3067 188.489 46.68 189.422 46.68ZM228.673 46.52C228.779 46.52 228.833 46.6 228.833 46.76C228.833 46.92 228.779 47 228.673 47C227.979 47 227.433 46.9867 227.033 46.96L224.633 46.92L222.313 46.96C221.886 46.9867 221.326 47 220.633 47C220.553 47 220.513 46.92 220.513 46.76C220.513 46.6 220.553 46.52 220.633 46.52C221.459 46.52 222.019 46.3333 222.313 45.96C222.633 45.56 222.793 44.8267 222.793 43.76V38C222.793 36.56 222.539 35.4933 222.033 34.8C221.553 34.1067 220.806 33.76 219.793 33.76C219.099 33.76 218.419 33.9067 217.753 34.2C217.086 34.4933 216.513 34.8933 216.033 35.4V35.64V43.76C216.033 44.8267 216.179 45.56 216.473 45.96C216.793 46.3333 217.366 46.52 218.193 46.52C218.299 46.52 218.353 46.6 218.353 46.76C218.353 46.92 218.299 47 218.193 47C217.499 47 216.953 46.9867 216.553 46.96L214.153 46.92L211.833 46.96C211.406 46.9867 210.846 47 210.153 47C210.073 47 210.033 46.92 210.033 46.76C210.033 46.6 210.073 46.52 210.153 46.52C210.979 46.52 211.539 46.3333 211.833 45.96C212.153 45.56 212.313 44.8267 212.313 43.76V38C212.313 36.56 212.059 35.4933 211.553 34.8C211.073 34.1067 210.326 33.76 209.313 33.76C208.673 33.76 208.033 33.8933 207.393 34.16C206.779 34.4 206.233 34.7467 205.753 35.2V43.76C205.753 44.8267 205.899 45.56 206.193 45.96C206.513 46.3333 207.086 46.52 207.913 46.52C207.993 46.52 208.033 46.6 208.033 46.76C208.033 46.92 207.993 47 207.913 47C207.219 47 206.673 46.9867 206.273 46.96L203.873 46.92L201.513 46.96C201.113 46.9867 200.566 47 199.873 47C199.793 47 199.753 46.92 199.753 46.76C199.753 46.6 199.793 46.52 199.873 46.52C200.699 46.52 201.259 46.3333 201.553 45.96C201.846 45.56 201.993 44.8267 201.993 43.76V36.24C201.993 35.4133 201.886 34.8133 201.673 34.44C201.486 34.04 201.179 33.84 200.753 33.84C200.299 33.84 199.659 34.0267 198.833 34.4H198.753C198.673 34.4 198.606 34.3333 198.553 34.2C198.526 34.0667 198.539 33.9867 198.593 33.96L204.153 31.24C204.313 31.1867 204.406 31.16 204.433 31.16C204.726 31.16 205.006 31.4533 205.273 32.04C205.539 32.6 205.699 33.36 205.753 34.32C207.566 32.16 209.513 31.08 211.593 31.08C212.846 31.08 213.846 31.3867 214.593 32C215.339 32.6133 215.793 33.4933 215.953 34.64C217.793 32.2667 219.833 31.08 222.073 31.08C223.513 31.08 224.606 31.4933 225.353 32.32C226.126 33.1467 226.513 34.4 226.513 36.08V43.76C226.513 44.8267 226.659 45.56 226.953 45.96C227.273 46.3333 227.846 46.52 228.673 46.52ZM244.926 44.36C244.98 44.36 245.033 44.4133 245.086 44.52C245.166 44.6267 245.18 44.7067 245.126 44.76C244.14 45.72 243.14 46.4133 242.126 46.84C241.113 47.2667 240.006 47.48 238.806 47.48C237.126 47.48 235.673 47.1333 234.446 46.44C233.22 45.72 232.286 44.7733 231.646 43.6C231.006 42.4 230.686 41.1067 230.686 39.72C230.686 38.1733 231.073 36.7467 231.846 35.44C232.62 34.1333 233.686 33.1067 235.046 32.36C236.433 31.5867 237.993 31.2 239.726 31.2C241.38 31.2 242.66 31.5733 243.566 32.32C244.473 33.0667 244.926 34.2267 244.926 35.8C244.926 36.6267 244.78 37.04 244.486 37.04L234.766 37.08C234.74 37.2667 234.726 37.5733 234.726 38C234.726 40.3467 235.26 42.1867 236.326 43.52C237.42 44.8533 238.98 45.52 241.006 45.52C241.726 45.52 242.34 45.44 242.846 45.28C243.353 45.12 244.02 44.8267 244.846 44.4L244.926 44.36ZM238.206 32C237.326 32 236.593 32.3867 236.006 33.16C235.42 33.9067 235.033 34.9467 234.846 36.28L240.646 36.2C240.62 34.84 240.42 33.8 240.046 33.08C239.673 32.36 239.06 32 238.206 32ZM259.085 44.2C259.192 44.2 259.272 44.2533 259.325 44.36C259.405 44.4667 259.405 44.5467 259.325 44.6C258.338 45.5867 257.378 46.32 256.445 46.8C255.512 47.2533 254.525 47.48 253.485 47.48C252.312 47.48 251.312 47.2 250.485 46.64C249.658 46.08 249.245 45.1333 249.245 43.8V34.92C249.245 34.0933 249.098 33.52 248.805 33.2C248.512 32.88 247.978 32.72 247.205 32.72C247.178 32.72 247.138 32.68 247.085 32.6C247.058 32.52 247.045 32.44 247.045 32.36C247.045 32.2533 247.058 32.1733 247.085 32.12C247.112 32.04 247.152 32 247.205 32C248.565 31.9467 249.658 31.6533 250.485 31.12C251.338 30.5867 251.992 29.7733 252.445 28.68C252.498 28.5733 252.605 28.52 252.765 28.52C252.952 28.52 253.045 28.5733 253.045 28.68V31.88C254.592 31.8533 256.325 31.7333 258.245 31.52C258.298 31.52 258.352 31.6267 258.405 31.84C258.485 32.0267 258.525 32.24 258.525 32.48C258.525 32.7467 258.472 33.0133 258.365 33.28C258.285 33.52 258.192 33.6267 258.085 33.6C256.352 33.2267 254.672 33.0267 253.045 33V42.48C253.045 43.4933 253.298 44.24 253.805 44.72C254.338 45.2 255.032 45.44 255.885 45.44C256.952 45.44 257.992 45.04 259.005 44.24L259.085 44.2ZM271.523 31.16C272.136 31.16 272.723 31.3867 273.283 31.84C273.869 32.2667 274.163 32.7867 274.163 33.4C274.163 33.96 273.989 34.4267 273.643 34.8C273.296 35.1467 272.843 35.32 272.283 35.32C271.883 35.32 271.549 35.24 271.283 35.08C271.043 34.92 270.789 34.68 270.523 34.36C270.283 34.0933 270.069 33.9067 269.883 33.8C269.723 33.6667 269.523 33.6 269.283 33.6C269.016 33.6 268.723 33.7067 268.403 33.92C268.109 34.1067 267.643 34.52 267.003 35.16V43.76C267.003 44.8267 267.256 45.56 267.763 45.96C268.269 46.3333 269.203 46.52 270.563 46.52C270.669 46.52 270.723 46.6 270.723 46.76C270.723 46.92 270.669 47 270.563 47C269.629 47 268.896 46.9867 268.363 46.96L265.123 46.92L262.763 46.96C262.363 46.9867 261.816 47 261.123 47C261.043 47 261.003 46.92 261.003 46.76C261.003 46.6 261.043 46.52 261.123 46.52C261.949 46.52 262.509 46.3333 262.803 45.96C263.096 45.56 263.243 44.8267 263.243 43.76V36.24C263.243 35.4133 263.136 34.8133 262.923 34.44C262.736 34.04 262.429 33.84 262.003 33.84C261.549 33.84 260.909 34.0267 260.083 34.4H260.003C259.923 34.4 259.856 34.3333 259.803 34.2C259.776 34.0667 259.789 33.9867 259.843 33.96L265.403 31.24C265.563 31.1867 265.656 31.16 265.683 31.16C265.976 31.16 266.243 31.44 266.483 32C266.749 32.5333 266.909 33.2667 266.963 34.2C268.056 33.08 268.949 32.2933 269.643 31.84C270.363 31.3867 270.989 31.16 271.523 31.16ZM292.359 31.56C292.412 31.56 292.439 31.64 292.439 31.8C292.439 31.96 292.412 32.04 292.359 32.04C291.505 32.04 290.759 32.4133 290.119 33.16C289.505 33.88 288.945 34.9333 288.439 36.32L283.999 48.12C282.585 51.8533 281.225 54.4667 279.919 55.96C278.639 57.48 277.212 58.24 275.639 58.24C274.839 58.24 274.225 58.0667 273.799 57.72C273.372 57.4 273.159 56.92 273.159 56.28C273.159 55.6667 273.345 55.2 273.719 54.88C274.092 54.56 274.545 54.4 275.079 54.4C275.372 54.4 275.612 54.44 275.799 54.52C276.012 54.6 276.265 54.7333 276.559 54.92C277.065 55.2667 277.545 55.44 277.999 55.44C278.612 55.44 279.159 55.2 279.639 54.72C280.145 54.2667 280.665 53.4933 281.199 52.4C281.732 51.3333 282.372 49.8 283.119 47.8L276.719 34.88C276.132 33.7333 275.665 32.9733 275.319 32.6C274.999 32.2267 274.599 32.04 274.119 32.04C274.039 32.04 273.999 31.96 273.999 31.8C273.999 31.64 274.039 31.56 274.119 31.56C274.865 31.56 275.439 31.5733 275.839 31.6L277.519 31.64L280.279 31.6C280.705 31.5733 281.279 31.56 281.999 31.56C282.079 31.56 282.119 31.64 282.119 31.8C282.119 31.96 282.079 32.04 281.999 32.04C281.305 32.04 280.799 32.1067 280.479 32.24C280.159 32.3467 279.999 32.5333 279.999 32.8C279.999 33.0133 280.079 33.28 280.239 33.6L284.959 43.24L287.359 36.28C287.599 35.5867 287.719 34.96 287.719 34.4C287.719 33.6533 287.505 33.08 287.079 32.68C286.652 32.2533 286.039 32.04 285.239 32.04C285.185 32.04 285.159 31.96 285.159 31.8C285.159 31.64 285.185 31.56 285.239 31.56C285.959 31.56 286.505 31.5733 286.879 31.6L289.279 31.64L290.879 31.6C291.199 31.5733 291.692 31.56 292.359 31.56ZM150.08 69.56C151.333 69.56 152.6 69.6667 153.88 69.88C155.187 70.0667 156.227 70.32 157 70.64C157.24 70.72 157.387 70.8267 157.44 70.96C157.52 71.0667 157.573 71.2667 157.6 71.56L158.12 77.12C158.12 77.2 158.053 77.2533 157.92 77.28C157.787 77.3067 157.693 77.2667 157.64 77.16C156.893 74.9733 155.827 73.3067 154.44 72.16C153.053 70.9867 151.387 70.4 149.44 70.4C147.627 70.4 146 70.8933 144.56 71.88C143.147 72.84 142.027 74.2267 141.2 76.04C140.4 77.8533 140 79.9733 140 82.4C140 84.8533 140.413 87.0133 141.24 88.88C142.093 90.72 143.253 92.1467 144.72 93.16C146.213 94.1467 147.92 94.64 149.84 94.64C151.68 94.64 153.227 94.1467 154.48 93.16C155.733 92.1467 156.92 90.4933 158.04 88.2C158.067 88.12 158.147 88.0933 158.28 88.12C158.413 88.1467 158.48 88.2 158.48 88.28L157.88 93.24C157.827 93.56 157.773 93.7733 157.72 93.88C157.667 93.96 157.52 94.0533 157.28 94.16C154.827 95.04 152.347 95.48 149.84 95.48C146.987 95.48 144.427 94.9467 142.16 93.88C139.92 92.7867 138.16 91.2667 136.88 89.32C135.6 87.3733 134.96 85.16 134.96 82.68C134.96 80.1467 135.613 77.8933 136.92 75.92C138.253 73.92 140.067 72.36 142.36 71.24C144.68 70.12 147.253 69.56 150.08 69.56ZM176.987 92.84C177.093 92.84 177.16 92.9067 177.187 93.04C177.24 93.1467 177.213 93.2267 177.107 93.28L172.987 95.24C172.88 95.2933 172.747 95.32 172.587 95.32C172.16 95.32 171.747 95.0933 171.347 94.64C170.973 94.1867 170.707 93.5733 170.547 92.8L168.827 94C168.213 94.4533 167.64 94.7867 167.107 95C166.573 95.1867 165.973 95.28 165.307 95.28C164.16 95.28 163.293 95.0267 162.707 94.52C162.12 94.0133 161.827 93.3067 161.827 92.4C161.827 91.68 162 91.1067 162.347 90.68C162.693 90.2267 163.12 89.88 163.627 89.64C164.16 89.3733 164.893 89.08 165.827 88.76L166.827 88.4L170.427 87.08V84.8C170.427 83.0933 170.28 81.8533 169.987 81.08C169.72 80.3067 169.253 79.92 168.587 79.92C167.173 79.92 166.373 81.0133 166.187 83.2C166.107 84 165.867 84.5733 165.467 84.92C165.093 85.2667 164.56 85.44 163.867 85.44C163.2 85.44 162.707 85.3067 162.387 85.04C162.093 84.7467 161.947 84.3733 161.947 83.92C161.947 83.12 162.413 82.36 163.347 81.64C164.28 80.8933 165.4 80.2933 166.707 79.84C168.04 79.3867 169.213 79.16 170.227 79.16C171.4 79.16 172.347 79.5333 173.067 80.28C173.813 81 174.187 82.1067 174.187 83.6V90.68C174.187 91.4533 174.32 92.0533 174.587 92.48C174.88 92.9067 175.28 93.12 175.787 93.12C176.16 93.12 176.547 93.0267 176.947 92.84H176.987ZM170.467 92.12C170.44 92.0133 170.427 91.84 170.427 91.6V87.76L168.707 88.56C168.627 88.5867 168.36 88.6933 167.907 88.88C167.453 89.04 167.053 89.32 166.707 89.72C166.387 90.12 166.227 90.5867 166.227 91.12C166.227 91.76 166.427 92.2667 166.827 92.64C167.253 92.9867 167.733 93.16 168.267 93.16C168.693 93.16 169.133 93.0133 169.587 92.72L170.467 92.12ZM178.463 95C178.409 95 178.382 94.92 178.382 94.76C178.382 94.6 178.409 94.52 178.463 94.52C179.289 94.52 179.849 94.3333 180.143 93.96C180.463 93.56 180.623 92.8267 180.623 91.76L180.663 71.44C180.663 70.5067 180.569 69.84 180.383 69.44C180.223 69.04 179.929 68.84 179.503 68.84C179.156 68.84 178.649 68.9867 177.983 69.28H177.943C177.863 69.28 177.783 69.2133 177.703 69.08C177.649 68.92 177.649 68.8267 177.703 68.8L183.583 66.04L183.743 66C183.876 66 184.023 66.0667 184.183 66.2C184.343 66.3067 184.423 66.4133 184.423 66.52V91.76C184.423 92.8267 184.569 93.56 184.863 93.96C185.156 94.3333 185.716 94.52 186.543 94.52C186.649 94.52 186.703 94.6 186.703 94.76C186.703 94.92 186.649 95 186.543 95C185.876 95 185.343 94.9867 184.943 94.96L182.503 94.92L180.103 94.96C179.703 94.9867 179.156 95 178.463 95ZM197.126 95.48C195.366 95.48 193.872 95.1067 192.646 94.36C191.446 93.5867 190.539 92.6 189.926 91.4C189.339 90.1733 189.046 88.8933 189.046 87.56C189.046 85.88 189.512 84.4133 190.446 83.16C191.379 81.88 192.566 80.9067 194.006 80.24C195.472 79.5467 196.966 79.2 198.486 79.2C199.766 79.2 200.912 79.4667 201.926 80C202.966 80.5333 203.486 81.2667 203.486 82.2C203.486 82.7067 203.286 83.1467 202.886 83.52C202.512 83.8667 201.979 84.04 201.286 84.04C200.646 84.04 200.139 83.88 199.766 83.56C199.392 83.2133 199.086 82.6933 198.846 82C198.606 81.2533 198.366 80.7467 198.126 80.48C197.912 80.1867 197.512 80.04 196.926 80.04C195.779 80.04 194.859 80.6133 194.166 81.76C193.499 82.88 193.166 84.3733 193.166 86.24C193.166 88.4533 193.659 90.2267 194.646 91.56C195.632 92.8667 197.206 93.52 199.366 93.52C200.086 93.52 200.699 93.44 201.206 93.28C201.739 93.12 202.406 92.8533 203.206 92.48H203.246C203.326 92.48 203.392 92.52 203.446 92.6C203.526 92.68 203.539 92.7467 203.486 92.8C202.499 93.7067 201.512 94.3867 200.526 94.84C199.539 95.2667 198.406 95.48 197.126 95.48Z" fill="#023618"/>
<path d="M82.7073 36.449C84.2201 35.2519 84.4877 33.0408 83.1459 31.6548C78.3626 26.714 72.2084 23.272 65.4383 21.7995C57.5258 20.0786 49.2615 21.1545 42.0533 24.8439C34.8452 28.5332 29.1393 34.6078 25.9078 42.0325C22.6764 49.4571 22.1193 57.7726 24.3315 65.562C26.5437 73.3514 31.3884 80.1327 38.04 84.7506C44.6916 89.3685 52.7386 91.5371 60.8099 90.887C68.8812 90.2369 76.4774 86.8084 82.3042 81.1855C87.2897 76.3743 90.716 70.2114 92.1884 63.494C92.6014 61.6096 91.2115 59.8693 89.2954 59.646C87.3793 59.4228 85.6666 60.8038 85.2068 62.6773C83.9521 67.7898 81.275 72.4704 77.4531 76.1585C72.7893 80.6591 66.7093 83.4034 60.249 83.9237C53.7887 84.444 47.3479 82.7082 42.0239 79.0121C36.6999 75.3159 32.8223 69.8881 31.0516 63.6535C29.2809 57.4188 29.7268 50.7631 32.3133 44.8203C34.8998 38.8776 39.4668 34.0155 45.2362 31.0625C51.0056 28.1096 57.6205 27.2484 63.9536 28.6258C69.1435 29.7546 73.8812 32.3294 77.6358 36.0192C79.0117 37.3714 81.1946 37.646 82.7073 36.449Z" fill="url(#paint0_linear_8_103)"/>
<path d="M60.1899 24.5691C60.3239 22.6447 58.87 20.9577 56.9418 21.016C53.3354 21.1251 49.7603 21.7914 46.345 22.9976C41.8294 24.5923 37.6892 27.0966 34.1804 30.3558C30.6716 33.6149 27.869 37.5594 25.946 41.9452C24.0229 46.331 23.0203 51.0647 23.0003 55.8536C22.9803 60.6424 23.9432 65.3844 25.8295 69.7861C27.7158 74.1879 30.4853 78.1557 33.9667 81.444C37.4481 84.7324 41.5672 87.2713 46.0693 88.9038C49.4744 90.1384 53.0437 90.8347 56.6491 90.9739C58.5768 91.0484 60.0448 89.3736 59.9268 87.4481C59.8088 85.5226 58.1477 84.0801 56.2225 83.9577C53.5739 83.7893 50.9567 83.245 48.4506 82.3363C44.8471 81.0297 41.5501 78.9975 38.7636 76.3655C35.9771 73.7335 33.7604 70.5576 32.2506 67.0345C30.7408 63.5113 29.9701 59.7158 29.9861 55.8828C30.0022 52.0498 30.8046 48.2609 32.3438 44.7505C33.883 41.2401 36.1263 38.0829 38.9347 35.4743C41.7431 32.8656 45.057 30.8611 48.6713 29.5847C51.1849 28.697 53.8066 28.1747 56.4565 28.0284C58.3826 27.9221 60.0558 26.4936 60.1899 24.5691Z" fill="url(#paint1_linear_8_103)"/>
<rect x="59.4789" y="55.0141" width="46.831" height="7.39437" rx="3.69718" fill="#FF4500"/>
<defs>
<linearGradient id="paint0_linear_8_103" x1="93" y1="56" x2="23" y2="56" gradientUnits="userSpaceOnUse">
<stop offset="0.946" stop-color="#FF4500"/>
<stop offset="1" stop-color="#005099"/>
</linearGradient>
<linearGradient id="paint1_linear_8_103" x1="93" y1="56" x2="23" y2="56" gradientUnits="userSpaceOnUse">
<stop offset="0.281" stop-color="#FF0000"/>
<stop offset="0.681" stop-color="#27187E"/>
</linearGradient>
</defs>
</svg>
